/* XPM */
static char *_7e0584cdbbf453edb6d445c147389ea[] = {
/* columns rows colors chars-per-pixel */
"32 32 226 2 ",
"   c #0D163C",
".  c #0C153A",
"X  c #1A1C3A",
"o  c #191837",
"O  c #0A0E36",
"+  c #261E36",
"@  c #1D213E",
"#  c #37273E",
"$  c #441E2D",
"%  c #47293A",
"&  c #562D3E",
"*  c #563139",
"=  c #61313D",
"-  c #091742",
";  c #061A43",
":  c #091B44",
">  c #051A48",
",  c #131F45",
"<  c #051F50",
"1  c #0B214C",
"2  c #13244C",
"3  c #1C2247",
"4  c #07255A",
"5  c #162B57",
"6  c #1E3159",
"7  c #272948",
"8  c #26355A",
"9  c #393756",
"0  c #372A43",
"q  c #012161",
"w  c #03296E",
"e  c #0A2C6C",
"r  c #062A67",
"t  c #173564",
"y  c #052B72",
"u  c #092E73",
"i  c #082F7A",
"p  c #063175",
"a  c #0C3176",
"s  c #0C347B",
"d  c #11397F",
"f  c #10367D",
"g  c #243D6B",
"h  c #273C64",
"j  c #3A3E63",
"k  c #47364B",
"l  c #5D3848",
"z  c #572E40",
"x  c #643B4A",
"c  c #1A457A",
"v  c #28436C",
"b  c #2C4774",
"n  c #3A4D70",
"m  c #39547D",
"M  c #3B4367",
"N  c #5B4C5F",
"B  c #694D5D",
"V  c #664656",
"C  c #764C58",
"Z  c #794D57",
"A  c #494865",
"S  c #564A66",
"D  c #4F5276",
"F  c #634F65",
"G  c #67566C",
"H  c #765769",
"J  c #645C77",
"K  c #7A4F62",
"L  c #6B6172",
"P  c #814E57",
"I  c #865A66",
"U  c #9A5D76",
"Y  c #8F5B71",
"T  c #8B626D",
"R  c #846573",
"E  c #886B7C",
"W  c #9E6A75",
"Q  c #956D7A",
"!  c #986976",
"~  c #9B717C",
"^  c #92727D",
"/  c #82757F",
"(  c #A16D7A",
")  c #A5717E",
"_  c #0B3782",
"`  c #0C3A83",
"'  c #0F3D89",
"]  c #113D83",
"[  c #123E89",
"{  c #14438D",
"}  c #154184",
"|  c #1D539B",
" . c #124490",
".. c #264C86",
"X. c #2A4E88",
"o. c #3E5987",
"O. c #2D5996",
"+. c #3F6191",
"@. c #3B67A3",
"#. c #2E67AE",
"$. c #4A5C83",
"%. c #4D6388",
"&. c #5A6787",
"*. c #466698",
"=. c #597198",
"-. c #5D708E",
";. c #6A6987",
":. c #796A85",
">. c #69749A",
",. c #6D748E",
"<. c #456EA3",
"1. c #4A72AD",
"2. c #557AAD",
"3. c #647EA9",
"4. c #447DC0",
"5. c #876980",
"6. c #8C7985",
"7. c #947584",
"8. c #9C7282",
"9. c #987988",
"0. c #857C96",
"q. c #987E95",
"w. c #996E81",
"e. c #A47583",
"r. c #AC7B84",
"t. c #AC7D89",
"y. c #A77889",
"u. c #B27A89",
"i. c #A97F91",
"p. c #7C8197",
"a. c #5B89BD",
"s. c #6A83A6",
"d. c #7587A7",
"f. c #7B96BB",
"g. c #758DB1",
"h. c #4E85C4",
"j. c #7393C2",
"k. c #77A8DB",
"l. c #8C8299",
"z. c #9B8494",
"x. c #AE818A",
"c. c #B3828C",
"v. c #B9868D",
"b. c #AB8C9C",
"n. c #A98496",
"m. c #B38492",
"M. c #BB8996",
"N. c #BB8D99",
"B. c #B68994",
"V. c #BC929C",
"C. c #8D8AA4",
"Z. c #8992A9",
"A. c #9A97A1",
"S. c #8498B9",
"D. c #969AB6",
"F. c #858FB2",
"G. c #A697A6",
"H. c #B998A6",
"J. c #B396A8",
"K. c #B2A6B6",
"L. c #B7B7BC",
"P. c #BAA9AF",
"I. c #C28F98",
"U. c #C99AA5",
"Y. c #D2A3AD",
"T. c #CBAAB7",
"R. c #D6ABB6",
"E. c #C8AEB5",
"W. c #E2B5BC",
"Q. c #819DC9",
"!. c #89A5CC",
"~. c #96A7C7",
"^. c #8FAED7",
"/. c #A7A7C2",
"(. c #AFBBCC",
"). c #8BB7E8",
"_. c #9BBAE7",
"`. c #A7BDE5",
"'. c #B5BDE1",
"]. c #DABCC7",
"[. c #C9BCD0",
"{. c #BBCAD9",
"}. c #B7C1CB",
"|. c #8DC6ED",
" X c #8EC8EE",
".X c #91C6EE",
"XX c #97C6ED",
"oX c #8EC4F3",
"OX c #8EC8F0",
"+X c #93C7F2",
"@X c #9CC5F3",
"#X c #95C9F1",
"$X c #9BCAF3",
"%X c #A7C5EA",
"&X c #B8C9E9",
"*X c #B8D1E7",
"=X c #A2CEF5",
"-X c #ABCAF4",
";X c #A7CDF9",
":X c #B4CCF3",
">X c #BBCEF5",
",X c #B2C7F1",
"<X c #A6D1F6",
"1X c #ABD2F6",
"2X c #ACD3F9",
"3X c #B3D4F4",
"4X c #B3D6FA",
"5X c #B6D9FB",
"6X c #BCDCFC",
"7X c #BCD5F7",
"8X c #C7C3D7",
"9X c #DAC5D3",
"0X c #FBCED7",
"qX c #C3CAEA",
"wX c #C4D4E8",
"eX c #C3D4F4",
"rX c #C2DEFC",
"tX c #C8DAF7",
"yX c #D1DDF7",
"uX c #C5E2FD",
"iX c #CAE4FD",
"pX c #CBE4FA",
"aX c #D5E8FF",
"sX c #E4F2FF",
"dX c #F4FCFF",
"fX c #E1E5FF",
/* pixels */
"@XXX%X!.g.d.f.p.$.v g 5 t *.a.oXOXOXoXOX|.|.|.|.|.|.|.|.|.|.|.|.",
"$X%X!.f.g.-.D n 1 ; : 1 1 t c k.oXoXOXOX X X X X.X.X.X.X|. X|.|.",
"%X^.s.=.h h m 2 : - : : > > r <.).#X+X+X#X X#X#X.X.X#X.X.X.X+X+X",
"XXs.=.6   2 2       . o 3 ; r <.k.$X+X#X#X#X#X#X#X#X#X#X#X@X#X#X",
"!.m v 1   1     O O # S J D > o.+X$X@X$X#X$X$X$X$X#X$X$X$XXX$X$X",
"^.t 1       . X # F E 7.5.:.M 4 ).;X@X=X$X$X$X$X$X$X$X$X$X$X$X$X",
"|.v 1 @ @ # # B ~ x.) Q U 5.:.j 3.2X$X=X<X=X$X$X=X$X=X$X$X=X=X$X",
"<Xv   9 G L 6.x.c.) ~ 8.8.9.q.;.%.=X=X=X$X=X=X=X=X<X=X=X=X=X=X=X",
"<Xm 9 q.b.B.c.c.t.y.i.8.V k H q.;.`.1X=X<X=X<X<X<X<X<X<X=X<X=X<X",
"2Xs.0.P.B.m.m.c.c.M.! # % G R n.0.d.`.3X<X<X<X<X<X$X<X<X<X<X<X<X",
"2XS.K.T.N.Y.U.M.I.I.P x V % V 9.n.5.Z.7X1X<X<X<X1X1X1X1X1X1X<X1X",
"4X^.G.9X].R.m.~ r.) W Z x K w.8.i.z.D.eX1X2X2X2X1X1X2X2X2X2X1X2X",
"2X%XD.[.9Xn.l I r.u.W P I ) 8.e.i.z.>.eX3X4X2X2X4X1X4X4X4X4X4X4X",
"2X5X~.(.b.B l & T I.) W ) ) y.y.i.b.J ~.6X4X4X5X4X5X5X4X5X4X5X5X",
"2X4X:XD.6.R l x T Y.Y.W ) ) v.m.n.b.;.~.rX5X5X5X5X3X1X6X4X5X5X5X",
"4X4X4X&XK.R 8.n.r.W.0XI.W W v.N.B.b.J ~.uX3X6X5X6X3X3X6X6X6X6X6X",
"4X4X4XeX[.P.H.N.N.Y.0XY.u.U e.M.N.J.A s.iX7XrXuXuX6X6X6XuX6XuX6X",
"5X5X4X7X8X9XT.H.I.Y.W.U.U x x x I b.9 >.iX6X6X6XuXuX6X6X6XuX6XuX",
"5X6X5X7XeX8X9XY.U.M.y.K = $ z & * R 9 8 `.iXiXiXuXpXuXuXuXiXiXiX",
"6X6X6X6X6X&XK.].U.N.w.z P w.5.P ~ L 0 8 `.Q.j.>XpXpXuX6X6X5X5X1X",
"6X6X6X6X6XuX/.G.R.m.x w.u.U U w.x.R X D 6Xk.e } @.1.....O.O.#.a.",
"6X6X6XrX6XuXuXp.z.J.F w.w.u.y.U x.^ o g.>Xf.w _ i p w y `  .| #.",
"rXrXrXrXuX6XuXtXJ J 7.H.U.y.x K ^ N 3 ~.-X<.q a a r w u i  .#.h.",
"tXpXiXrXpXuXuXiXiX,.k E T.b.H k 0 + D %X_.X.q u r u s i p _ | #.",
"{.{.wXpXpXpX*XpXaXsX0.k F L S 7 , , , o.).X.q e u s d u i `  . .",
"L.L.L.}.8XwX~.*X*XyXfXD.j 9 M h , > > - *.X.q e u d f w a `  ._ ",
"(.L.L.P.A.A.p.}.qX~.tX'.>.>.$.5 - 2 5 5 4 t r a a d s w s _ [ ` ",
"z.b.P.6./ L p.*X3.h h 5 2 2 > 1 1 > < 4 > 4 a s _ d u y s ` [ ` ",
"/ z.n.z.l.A.{.eX3.t 1 g g t =.g.*.3.2.*.1.O.p s _ ] i u _ [ [ _ ",
"^ z.^ 6.Z.~.qX%X3.*.b t g ~.rX>X_.,X-X_.@X@.i ' ] ] a f _ ' [ _ ",
"^ ^ T E D.!.>X~.f.&X&.D &XdXfXwX%X,X,X`.@X1.s { [ ] i ] ` ' ' _ ",
"Q ! ! 9.F.f.,Xg.~.aXsXyXdXdXdXyX&X>X>X-X;X2.c { { } u ' [ ' ' ' "
};
