/* XPM */
static char *_537d07ccf8040ecd5cc58333b3907e4[] = {
/* columns rows colors chars-per-pixel */
"64 64 77 1 ",
"  c #5E5F63",
". c #636469",
"X c #68696E",
"o c #6C6D72",
"O c #6F7075",
"+ c #6E7279",
"@ c #717276",
"# c #74757B",
"$ c #76797E",
"% c #797A7E",
"& c #747780",
"* c #767981",
"= c #7B7D83",
"- c #7D8086",
"; c #7E8289",
": c #818286",
"> c #83858B",
", c #88878C",
"< c #85888E",
"1 c #898A8E",
"2 c #868A91",
"3 c #8B8D93",
"4 c #8C8F98",
"5 c #908F95",
"6 c #8D9096",
"7 c #8E9299",
"8 c #919196",
"9 c #93959B",
"0 c #98979D",
"q c #96989E",
"w c #99999E",
"e c #9397A0",
"r c #969AA2",
"t c #9B9DA3",
"y c #9D9FA8",
"u c #A09FA5",
"i c #9DA0A6",
"p c #9DA3AA",
"a c #A1A1A6",
"s c #A3A5AB",
"d c #A8A7AC",
"f c #A5A8AE",
"g c #A9A9AE",
"h c #A2A7B0",
"j c #A5AAB2",
"k c #AAACB3",
"l c #A7AEB8",
"z c #ABAFB8",
"x c #B0AFB5",
"c c #A7B0B7",
"v c #ACB0B6",
"b c #ADB3BA",
"n c #B1B2B6",
"m c #B2B4BB",
"M c #B5B8BE",
"N c #BABABF",
"B c #AFB6C0",
"V c #AFB8C1",
"C c #B3B7C0",
"Z c #B5BBC2",
"A c #BABDC4",
"S c #B7BEC8",
"D c #BDC0C6",
"F c #B7C0C9",
"G c #BDC3CA",
"H c #BFC6D0",
"J c #C0C1C6",
"K c #C1C5CC",
"L c #C3C9CF",
"P c #C4CBD3",
"I c #C9CDD4",
"U c #CBD1D7",
"Y c #CDD3DB",
"T c #D0D5DB",
"R c #D5DBE2",
"E c #DBE2EA",
"W c #E3E8EE",
/* pixels */
":ttprsfsjpgtagbt,awggadaaaaawwwidaawwwsyrduy9sg35xkgduyshsshutt9",
"@4e73ss3pcq9iit7%8wa8wa1qq18988iw6aw,rq20u3qt85>:9ut5tu4yk50t583",
"=49rsjvtfDftmksq:wddwggwwaw1ww8uawsd9wr9wxuwuy825ukd00heymuudu3>",
"*9plZmzvZvvvmmGi:aagnnxdaauwwauagvxdat0wuxnguuu25mkkgCkzzCCmmhu8",
"*9pcbmbbMpjvmshq%8uaxnNxwduw0wawadu8ag05ddgdd00>>txxzCgkAAAKnuy9",
"=9pjjjhjjiikjdyq:5waxnNngwuw0uaaaga9wdg8uaaads3=2yxCxdkzAnCKKu0e",
"=yyppjbcpppzjzmq,uudgngNgwwuwaagggdutaguawudda0>5mdgkkkmZmdCChdt",
"=yjppbcbvidkjppt%wwdgxxgwwduauwawadutaddwudddwt1=ugxxdkgnjkmmdue",
";2rllllpcqbCj97r%,wadgdauuduwuwaaaw80twttagddu0,:9udmxyuusmmCd9e",
";prjpphppjSbbjcp:auuddawwatywwwwwas9tdttaidjnxd5:udxxuudgnJKmdd0",
"&rrehcphspbjZVbp%wwwddw8tatudww08wsdzduqytuujts3%udxdddxxmAJCkxu",
"&;recclcjshZHbrr%1wudaawtuwtsqwdw8wdhudt3qsssr83=5udxxxkxAKKAg0u",
"=7rrpccchchVFbcq=9gfdduwwtqrtqakguskaddkphnddga8,udmCmxxCJIPAnse",
"&errrphppppVmcc7%wdtdaw0waswttradddaatffdmutnks5:usdxdmCKKYKAdkg",
"&4pp2ep7ehepb79e#,wwdw089wd9adwudjkgjdsslmykn808#8uukkkALJKSJxuk",
"o&;;;&;;;;4;4;;;%8aaww99wtswaagjdhdskkkmzmznkwd9>sdgxzkPKAAAKJCk",
"+2::11>33><9399-=wiww80dt8tysstdkddltvAMkvDMvfv91kusAxkJAAkAIJAd",
"+68,:i9189,rs30,%8wt08wgd0dtsurukussivAvfvDDcriq>8unnxmAAKzKYCuk",
"$19w9tdttfawdst3:8www0wguwyaysysddrlbZZkfMmfvfpw5udmukZJLKnAIAdk",
"$8qiuagkgddaslk5:aiwaidssqqrtyujukjzbmcfvMfpvvn92mmmkxAZJPJAmzCg",
"O890tggnxaaaa8i5$waaasddsqrrrudjuujlcpfcfjfrgtrq;tZvzMnZAYAACsuu",
"#,1uwwda0axwwa81%6wasapklsruyssslsjjsppvMvfffiq72ssmvmMIKJJAJZkn",
"%5wuggad8wdxwwa1%iwidgkMmhyshjpruhkkcpbvmDipjjp74CylvmMGAAAZKLKz",
"@8wanMnduwaxa8w:%wqidknzmjhkhhpskkjpjbjcbZvjFpi2;trsvzmAJAKJZlkz",
"%,0wudaauuaddw31%3waagzsppfsitsdpplhphplpccbFrr2;6rpvjbZAPLZzztj",
"%wwwauw01wuiaaa6:daisxjdsizss9pjhyphyyBhhbppccFr6fpjvjbbPTASbZZh",
"%000w0wa88aaawi1;siidlzjsskfsqrhhryphpBlcccpcbVi;pqbMjpbLYZGFcjh",
"@188859aagkdi88,-6igxkjfpspsyyysuryyprjbccchbcee-3pFcbcMUPKUGZrs",
"%u89i818agsggq91>dddgnkdspitpptsppppppcpjjpccFc7;ipbfFFGUHURYEMf",
"%w8wga9qxaggvia8>dsiidgappripirdirppjpprjppccFj;2cpjFHHGGGUPTUcc",
"@1q9waiiiaignqq6:8ia1ak8rs79d63s72ip;j7;pp7rcp72;7pcFFZFFFZPLiqj",
"%8iqqwadgkggkkv3$:>3,>3,>1<>>-*>;-;;;;;;;7;;4e4-2plcGFcbFGZGcccc",
"*utusuuusjngMmM7=055985315333,=:3<:1>369teeeudk9<zvbHVhhFYHFllbb",
"#5e0uusudikDDsrr=0005tt3w018835863331w08uueuCgst=ehZSchBHRYHVcrj",
"*5r80sttsrvDZkpr,00urtdu8w8>38,tw133<4050uuxJNkt4phbZScFFYUYGFcc",
"=0t0tty9yzZGnjZr,dudssujuwgt59dwwtt39dusjdxLJAAr4SbhSFVGFHYYHYFl",
"#99esrsujzMvbpp9=wadjddsausdtwu00wsskkusnknKAjsr;ychVFMbZZLRYFpc",
"*,ets00udzjjcpr6:8wsdkssdrrtturt9rwtkttmnkMZAcit2yblbZSVFSPUHHjc",
"=rryyaisshhhbVc4:iwadndddut0tiyyaqhlmdxxanZJLZvp4SjBBVGbHIYPUYGc",
"$9tr3yjcjlpbbpj7%wafskfdsustrq0rsjnkkmnxanJJKnkq;hphGFFcZFPYRGcc",
"*2rrtjhsphVlcpe;%1kxadnnu90a9wt<ybmkkAAkvANmGMiq;7ppSFZZBZGRUGpb",
";e7tdprhpplphhc7=axxdknvkt5t916rsMkpcDMvmZNLGDZt;plccZFHHbYWERGb",
"$r3qdy4rhprbcrp;=ajkhdyjd5r9w3rpvbsjDvsbMMALMMbe;plbhVFUPFYREUZc",
"&>47ey7erpyBVpe;%8djuuit09u38trpppssvcpckvNADpii;2jbbmFPPPGTYSsc",
"*3439r77rprhZVz7-sjsttr79rq5377e9rhhppipkjMZAZMr2cpVcbGZZGGPUFHZ",
"@773977erppljjh2-sjsteq793>427777ehcjpppffjzKKmr;ccjhbBVcBVZHbVj",
"+243rr7phlcljp93=9hs4ee<9>$32;6e27pr4q77pp9pPbpr=7ll7ph9jSphFprh",
"*73<q7eephcprcp7$:;<==>##*#+&;+#;#;;--;723;3pt73&>272<267er77676",
"*943999erjFchjce-t996qw8q9833t9-o3322<23336996r9iierpttiiidjpdsq",
"@3e96riippcjpere-wka6pa6adqwa68>@3q9<97<9q79i99sp9df9ps9avaamgtd",
"+34979qr7rcprrpe<akgwidwdnwqsw91*3rq<9969st8ppqdprjjripifvvfMmss",
"+32493797rhrpcc71xxdkawdngkgsaa1*rrttrtiussfssjfsdzmvfgkvcmMDDZs",
"o1389397rrh;77pr-w9ukxwadddgx0w:#9issipssptsfkjcsvvfvsicvjvMLcif",
"@>,36247;;hr;rp;;wwuana8tadaxw:=#3qfptfpspssfjsjvscjcffMmcjMGmsf",
"$898723eprhp;rh;>ddaaxddwadxduw,$99rrsptrshspjfpjshpffbMkbcDKMAk",
"O88379e4;plpcrp;@w9wiaidiggdawu,+979rsps7tjstsspibjsfpjvvDDDDkjz",
"+>>6i7i9prpppr;;#313iuwasgdjkt93+<9qtppieeuhyusficcvccfcMFZZDvrj",
"@,2774iq;rrpcpc;%ww9dawaxddkvdd3$67799rqttkuyyppicbcgjjcZbMDDZmk",
"X867rt1qpprhcph;Oqwssiwadwrudrs3$86997qtdjtsppsdpcfjcfcbFbbMKvka",
"X-33fiwrrrrrp;r;o>wiiaxi8ddsjq9q@<6999rikvvgydjzvpfvdccbZvcbKvia",
"#1386it17rr7err;%3ww0ikddvdtzdar%39r9ris7pvtprpfviicffcbbvcmDKmg",
"O833qw><67;r;rh;#qw9wiiqdt5svagq#879err9tirriripjpppcppfMvcbMFmv",
"o:5:;73;26;;r;r;@8w93wt6sd3tu0rw@,731793rr,8p97ii4qi7fs6pmiimkik",
" oO@o+$oo++o--;+X$%%%%<;;,>>:>>=.@$$+#**#-=$--$;;--;;42>36219986"
};
