/* XPM */
static char *_29c3896489242f1fa92cb47a9018046[] = {
/* columns rows colors chars-per-pixel */
"32 32 62 1 ",
"  c #2E2D33",
". c #333236",
"X c #3A3937",
"o c #36353A",
"O c #38373D",
"+ c #3A3A3D",
"@ c #403E3F",
"# c #3D3E42",
"$ c #413F42",
"% c #434344",
"& c #484647",
"* c #494947",
"= c #45444A",
"- c #48474B",
"; c #47484D",
": c #4B4A4D",
"> c #54514D",
", c #4D4D52",
"< c #504F54",
"1 c #4F5055",
"2 c #525255",
"3 c #585657",
"4 c #5D5956",
"5 c #55555A",
"6 c #58575D",
"7 c #57585D",
"8 c #5A595E",
"9 c #615E59",
"0 c #62615F",
"q c #565660",
"w c #5D5C62",
"e c #5F5F69",
"r c #605F64",
"t c #5F6064",
"y c #5E6168",
"u c #636265",
"i c #686667",
"p c #686866",
"a c #646469",
"s c #696769",
"d c #6C6B6C",
"f c #716E6E",
"g c #71716E",
"h c #676771",
"j c #6F6F71",
"k c #716F70",
"l c #747373",
"z c #787675",
"x c #7C7A76",
"c c #7A7779",
"v c #7C7B7A",
"b c #817D7B",
"n c #84827E",
"m c #868381",
"M c #898682",
"N c #8C8985",
"B c #8E8C88",
"V c #908D89",
"C c #95928C",
"Z c #99958E",
"A c #9C9791",
"S c #9E9A94",
/* pixels */
":15X.>55778O#884tpd>%gllzxb34nbf",
"27w1:88wu8i27spuufliuvnMMBCxxBnx",
"187tw88tw8tuppdutljlvvmmNCSSAVnn",
"+1q788wtuwttsls;&8lcvvnmBCSACnx9",
".=77wwwr0wuusl8@X3lcvnmBnCZAACg>",
",55588rww8tuddf0>dlccnmmCnZSACnn",
",55588w8tuuadddi0fcvlvnmnnnAZCZn",
",55q8wwwuauuaps00flclcvlnCnVCZZn",
",qwq8w8wrauaasht8jjlkllgxnnnNCVb",
"1qq788wruwwuauduwdjkflffgxnnNnng",
",777w8wurwwrsuiursssdkkgzxnnnnnx",
"o:w88wtwrwwasu5%@3sasdklgzxnzbp*",
"O,w8wwwq88rraa6@#5piiiddffgxgxu*",
"27wtw88558raari88uipdpipsdglxgzd",
"5ww1;w556wu<6raruup83isspidu0fjp",
",52+.,,22<8#$8822t8%@8iu8ui+*up8",
",<<Oo<<,<<2++56>148%+wrrrsi+&pu2",
"558-=www88w*24737up82duuisj80di3",
"7q58w8ew88668888wsasaaauuajldpi7",
"#,q5wqwwq8568r2$#5ytrrrruuhdip3%",
"O:qqwweer5588r:XO,wrrwrrwusutt*X",
"5wqwqwwew56q8rr25wwrrwrrarrww782",
"wwwwewrrw55568857wuuwwrruw8u3573",
"qewyererw65<26688wuurwwrww887332",
"qeeeeeyyw75555858wwrr6rr5588655<",
"qeeewwwetw5557858qrr66668588555:",
"waeeeewewq7q7w85<qrw8q6r8555552:",
"#5hheewwtqqw77-OO-wq8r6r555526$.",
"#5hhyeqww57q55=o.=qqqq6q8wqq5<=.",
"eeeeeqq5q5575<,,<<2855225866<<<:",
"eee<,wq7q25==<5,,<2-$522<55$$,,-",
"qee##555q<<.o,2,,<<O <<<:<, .,,="
};
